<svg height="512pt" viewBox="0 0 512.00032 512" width="512pt" xmlns="http://www.w3.org/2000/svg"><path d="m512 108.472656v249.964844c-.0625 27.171875-10.703125 52.785156-29.773438 72.128906l-79.632812 80.765625h-56.171875l107.320313-108.847656c11.671874-11.835937 18.222656-27.511719 18.257812-44.132813v-249.964843c.027344-11.035157-8.539062-20.027344-19.566406-20.054688-.015625 0-.03125 0-.050782 0-5.324218 0-10.332031 2.066407-14.105468 5.824219-3.785156 3.769531-6.261719 8.785156-6.273438 14.128906v181.34375c.300782 4.546875.050782 9.167969-.789062 13.761719-1.167969 6.433594-4.0625 18.589844-10.269532 27.734375-.9375 1.378906-2.6875 3.957031-55.183593 69.984375-2.378907 2.992187-4.734375 5.953125-7.054688 8.871094-5.734375-13.417969-12.527343-26.351563-20.328125-38.703125 40.6875-51.195313 48.265625-60.992188 49.546875-62.734375.949219-1.488281 2.785157-5.992188 3.9375-12.316407.953125-5.230468-.730469-10.570312-4.503906-14.289062-3.042969-3-7.109375-4.636719-11.34375-4.605469-4.277344.03125-8.28125 1.722657-11.28125 4.769531l-80.820313 81.90625c28.789063 33.378907 47.550782 73.761719 54.496094 117.566407l3.976563 25.09375.621093 4.664062h-40.378906l-3.726562-23.492187c-6.34375-40.023438-24.546875-76.609375-52.644532-105.804688-.570312-.59375-1.148437-1.183594-1.726562-1.769531l-97.183594-98.492187c-6.199218-6.289063-16.351562-6.359376-22.632812-.167969-3.769532 3.71875-5.453125 9.0625-4.503906 14.289062 1.152343 6.328125 2.992187 10.832031 3.9375 12.320313 4.644531 6.324218 60.347656 76.367187 96.921874 122.242187l-31.273437 24.9375c-28.496094-35.738281-95.148437-119.417969-98.667969-124.601562-6.203125-9.144531-9.097656-21.296875-10.269531-27.730469-1.019531-5.601562-1.164063-11.242188-.503906-16.746094l-.355469.015625v-178.058593c-.011719-5.332032-2.105469-10.347657-5.890625-14.117188-3.773437-3.757812-8.78125-5.824219-14.105469-5.824219-.019531 0-.03125 0-.050781 0-11.027344.027344-19.976563 9.019531-19.953125 20.046875v249.980469c.039062 16.613281 6.972656 32.289063 18.644531 44.125l107.320313 108.847656h-56.175782l-79.628906-80.765625c-19.074218-19.34375-30.097656-44.957031-30.160156-72.121094v-249.980468c-.0742188-33.078125 26.777344-60.054688 59.859375-60.132813 16.050781-.050781 31.109375 6.167969 42.46875 17.476563 11.359375 11.304687 17.632813 26.355468 17.671875 42.382812v131.144532c19.1875-5.664063 40.820312-.867188 55.820312 14.347656l80.378907 81.460937 80.054687-81.132812c10.496094-10.648438 24.519532-16.574219 39.476563-16.679688 5.945312-.035156 11.753906.863281 17.269531 2.597657v-131.726563c.039062-16.039063 5.699219-31.089844 17.058594-42.394531 11.324218-11.273438 26.351562-17.476563 42.320312-17.476563h.148438c33.082031.078125 59.546875 27.054688 59.472656 60.140625zm-256 117.167969-100.976562-49.890625v-125.871094l100.976562-49.878906 100.976562 49.878906v125.871094zm60.976562-74.742187v-56.402344l-40.976562 20.246094v56.402343zm-60.976562-106.285157-35.820312 17.695313 35.820312 17.699218 35.820312-17.699218zm-60.976562 106.285157 40.976562 20.246093v-56.402343l-40.976562-20.246094zm0 0"/></svg>