<?xml version="1.0" encoding="iso-8859-1"?>
<!-- Generator: Adobe Illustrator 19.0.0, SVG Export Plug-In . SVG Version: 6.00 Build 0)  -->
<svg version="1.1" id="Capa_1" xmlns="http://www.w3.org/2000/svg" xmlns:xlink="http://www.w3.org/1999/xlink" x="0px" y="0px"
	 viewBox="0 0 512.001 512.001" style="enable-background:new 0 0 512.001 512.001;" xml:space="preserve">
<polygon style="fill:#69CBEF;" points="440.787,480.786 440.787,71.212 358.872,316.956 276.958,235.042 113.128,235.042 
	113.128,480.786 "/>
<g>
	<circle style="fill:#00AEEF;" cx="113.13" cy="235.039" r="20"/>
	<circle style="fill:#00AEEF;" cx="276.96" cy="235.039" r="20"/>
	<circle style="fill:#00AEEF;" cx="358.87" cy="316.959" r="20"/>
	<circle style="fill:#00AEEF;" cx="440.79" cy="71.209" r="20"/>
</g>
<polygon style="fill:#EF938F;" points="440.787,480.786 440.787,319.794 358.872,398.871 195.043,316.956 113.128,398.871 
	113.128,480.786 "/>
<g>
	<circle style="fill:#EF6C6A;" cx="113.13" cy="398.869" r="20"/>
	<circle style="fill:#EF6C6A;" cx="195.04" cy="316.959" r="20"/>
	<circle style="fill:#EF6C6A;" cx="358.87" cy="398.869" r="20"/>
	<circle style="fill:#EF6C6A;" cx="440.79" cy="319.799" r="20"/>
</g>
<path d="M509.072,473.715l-21.213-21.214c-3.905-3.903-10.235-3.904-14.143,0c-3.905,3.905-3.905,10.237,0,14.143l4.143,4.143
	h-27.071V348.074c11.639-4.128,20-15.243,20-28.28s-8.361-24.152-20-28.28V99.492c11.639-4.128,20-15.243,20-28.28
	c0-16.542-13.458-30-30-30s-30,13.458-30,30c0,9.6,4.538,18.155,11.576,23.65L358.327,286.97c-4.424,0.08-8.619,1.114-12.38,2.918
	l-41.921-41.92c1.878-3.917,2.932-8.3,2.932-12.926c0-16.542-13.458-30-30-30c-13.036,0-24.152,8.361-28.28,20h-107.27
	c-4.128-11.639-15.243-20-28.28-20c-16.542,0-30,13.458-30,30c0,13.036,8.361,24.152,20,28.28v107.269
	c-11.639,4.128-20,15.243-20,28.28s8.361,24.152,20,28.28v43.635H41.213v-61.915h10c5.522,0,10-4.478,10-10s-4.478-10-10-10h-10
	v-61.915h10c5.522,0,10-4.478,10-10s-4.478-10-10-10h-10v-61.914h10c5.522,0,10-4.478,10-10s-4.478-10-10-10h-10v-61.915h10
	c5.522,0,10-4.478,10-10s-4.478-10-10-10h-10V81.212h10c5.522,0,10-4.478,10-10s-4.478-10-10-10h-10V34.141l4.143,4.143
	c3.906,3.904,10.236,3.904,14.143,0c3.905-3.905,3.905-10.237,0-14.143L38.284,2.928c-3.906-3.904-10.236-3.904-14.143,0
	L2.929,24.141c-3.905,3.905-3.905,10.237,0,14.143c1.953,1.952,4.512,2.929,7.071,2.929s5.118-0.977,7.071-2.929l4.142-4.142
	v446.645c0,5.522,4.478,10,10,10h446.645l-4.142,4.142c-3.905,3.905-3.905,10.237,0,14.143c1.953,1.952,4.512,2.929,7.071,2.929
	s5.118-0.977,7.071-2.929l21.213-21.213C512.977,483.952,512.977,477.62,509.072,473.715z M440.787,61.212c5.514,0,10,4.486,10,10
	s-4.486,10-10,10s-10-4.486-10-10S435.274,61.212,440.787,61.212z M358.872,306.956c5.514,0,10,4.486,10,10s-4.486,10-10,10
	s-10-4.486-10-10S353.359,306.956,358.872,306.956z M276.957,225.042c5.514,0,10,4.486,10,10s-4.486,10-10,10s-10-4.486-10-10
	S271.444,225.042,276.957,225.042z M141.408,245.042h107.269c4.128,11.639,15.243,20,28.28,20c4.626,0,9.009-1.054,12.926-2.932
	l41.921,41.92c-1.878,3.916-2.932,8.3-2.932,12.926c0,16.542,13.458,30,30,30s30-13.458,30-30c0-9.6-4.538-18.155-11.576-23.65
	l53.491-160.473v158.681c-11.639,4.128-20,15.243-20,28.28c0,4.438,0.976,8.649,2.713,12.443l-41.232,39.803
	c-4.035-2.023-8.583-3.169-13.396-3.169c-8.074,0-15.407,3.212-20.805,8.417l-113.261-56.631c0.15-1.214,0.237-2.448,0.237-3.702
	c0-16.542-13.458-30-30-30s-30,13.458-30,30c0,4.626,1.054,9.009,2.932,12.926l-41.921,41.921c-0.949-0.455-1.926-0.859-2.926-1.214
	V263.322C131.637,260.304,138.39,253.551,141.408,245.042z M368.872,398.871c0,5.514-4.486,10-10,10s-10-4.486-10-10s4.486-10,10-10
	S368.872,393.357,368.872,398.871z M205.043,316.956c0,5.514-4.486,10-10,10s-10-4.486-10-10s4.486-10,10-10
	S205.043,311.442,205.043,316.956z M113.128,225.042c5.514,0,10,4.486,10,10s-4.486,10-10,10s-10-4.486-10-10
	S107.615,225.042,113.128,225.042z M113.128,408.871c-5.514,0-10-4.486-10-10s4.486-10,10-10s10,4.486,10,10
	S118.642,408.871,113.128,408.871z M430.787,470.786h-61.915v-10c0-5.522-4.478-10-10-10s-10,4.478-10,10v10h-61.915v-10
	c0-5.522-4.478-10-10-10s-10,4.478-10,10v10h-61.914v-10c0-5.522-4.478-10-10-10s-10,4.478-10,10v10h-61.915v-43.635
	c11.639-4.128,20-15.243,20-28.28c0-4.626-1.054-9.009-2.932-12.926l41.921-41.921c3.917,1.878,8.3,2.932,12.926,2.932
	c8.074,0,15.407-3.212,20.805-8.417l113.26,56.631c-0.15,1.214-0.237,2.447-0.237,3.701c0,16.542,13.458,30,30,30s30-13.458,30-30
	c0-4.438-0.976-8.649-2.713-12.443l41.232-39.803c1.096,0.549,2.229,1.035,3.396,1.449v122.712H430.787z M440.787,329.794
	c-5.514,0-10-4.486-10-10s4.486-10,10-10s10,4.486,10,10S446.301,329.794,440.787,329.794z"/>
<g>
</g>
<g>
</g>
<g>
</g>
<g>
</g>
<g>
</g>
<g>
</g>
<g>
</g>
<g>
</g>
<g>
</g>
<g>
</g>
<g>
</g>
<g>
</g>
<g>
</g>
<g>
</g>
<g>
</g>
</svg>
